<svg width="205" height="205" viewBox="0 0 205 205" fill="none" xmlns="http://www.w3.org/2000/svg">
<rect width="205" height="205" rx="48" fill="url(#paint0_linear)"/>
<g filter="url(#filter0_d)">
<path d="M104.413 20.2871C59.5227 19.5774 22.4226 55.5227 21.7129 100.413C21.0032 145.303 56.9485 182.403 101.838 183.113C146.728 183.822 183.829 147.877 184.538 102.987C185.248 58.0969 149.303 20.9968 104.413 20.2871ZM102.164 162.538C68.6152 162.008 41.7572 134.28 42.2875 100.738C42.8178 67.196 70.5455 40.3314 104.087 40.8617C137.629 41.392 164.494 69.1197 163.964 102.662C163.433 136.204 135.712 163.068 102.164 162.538Z" fill="#FF91F4"/>
<path d="M120.774 115.515C116.994 119.178 110.948 121.495 105.383 121.407C86.2691 121.105 84.8965 105.475 84.9259 100.689C84.9683 94.6605 87.1655 89.076 90.9591 85.3744C94.6656 81.7507 99.738 79.9666 106.037 80.0662C111.727 80.1561 116.871 82.2406 120.528 85.9278C122.542 87.962 125.809 88.0241 127.899 86.0678L137.566 77.0206C139.737 74.989 139.809 71.5686 137.725 69.4476C129.169 60.7447 118.349 56.0385 106.419 55.8499C93.2142 55.6411 81.8437 59.8047 73.5448 67.8909C65.246 75.9704 60.418 87.8069 60.2856 100.366C60.1654 112.151 63.8611 123.005 70.7037 130.934C78.6693 140.163 90.5295 145.163 105.004 145.392C117.786 145.594 129.085 141.357 137.69 133.13C139.806 131.109 139.88 127.754 137.855 125.642L128.278 115.651C126.247 113.532 122.88 113.471 120.774 115.515Z" fill="white"/>
</g>
<defs>
<filter id="filter0_d" x="14.4057" y="20.2764" width="177.439" height="177.439" filterUnits="userSpaceOnUse" color-interpolation-filters="sRGB">
<feFlood flood-opacity="0" result="BackgroundImageFix"/>
<feColorMatrix in="SourceAlpha" type="matrix" values="0 0 0 0 0 0 0 0 0 0 0 0 0 0 0 0 0 0 127 0"/>
<feOffset dy="7.29645"/>
<feGaussianBlur stdDeviation="3.64823"/>
<feColorMatrix type="matrix" values="0 0 0 0 0.371106 0 0 0 0 0.0201982 0 0 0 0 0.0201982 0 0 0 0.05 0"/>
<feBlend mode="normal" in2="BackgroundImageFix" result="effect1_dropShadow"/>
<feBlend mode="normal" in="SourceGraphic" in2="effect1_dropShadow" result="shape"/>
</filter>
<linearGradient id="paint0_linear" x1="11.9432" y1="1.11667e-06" x2="68.4249" y2="278.47" gradientUnits="userSpaceOnUse">
<stop stop-color="#FC4747"/>
<stop offset="1" stop-color="#D73939"/>
</linearGradient>
</defs>
</svg>
