<svg width="205" height="206" viewBox="0 0 205 206" fill="none" xmlns="http://www.w3.org/2000/svg">
<rect y="0.769043" width="205" height="205" rx="48" fill="url(#paint0_linear)"/>
<path d="M122.46 44.4647C127.583 48.7812 130.368 53.5443 130.523 58.4508C130.606 59.9541 130.397 61.4153 129.999 62.8868C131.158 63.3891 132.316 63.8913 133.433 64.4248C144.452 69.7391 153.008 77.4204 158.14 86.6224C160.664 91.1242 168.371 107.072 162.207 123.56C158.394 133.786 149.958 142.192 137.839 147.942C138.714 150.938 139.162 154.06 139.203 157.161C139.253 162.798 137.915 168.496 135.116 173.984C133.873 176.415 130.898 177.404 128.498 176.201C126.066 174.956 125.034 172.011 126.277 169.58C128.314 165.511 129.317 161.368 129.267 157.297C129.246 155.355 128.997 153.455 128.548 151.638C107.181 158.444 79.7218 157.549 59.0595 149.02C41.914 141.967 33.9531 134.819 34.6865 127.095C34.9483 124.485 36.4109 120.52 42.0587 116.747C53.1977 109.252 76.6512 105.059 96.5524 111.092C106.738 114.161 116.995 120.111 124.706 127.447C128.514 131.052 131.581 134.886 133.918 138.877C141.047 135.428 149.451 129.591 152.972 120.106C157.631 107.615 151.53 95.0296 149.538 91.4992C144.197 81.9316 134.942 75.4918 125.028 71.5671C119.651 77.6163 111.133 82.6914 102.855 86.0862C90.172 91.345 74.2336 94.3458 67.5878 87.1257C62.8095 81.9639 63.8772 73.2067 67.6469 67.7091C73.0038 59.9792 85.9055 55.7958 102.124 56.5639C108.345 56.8625 114.648 57.8814 120.67 59.5682C120.712 59.276 120.743 59.0568 120.701 58.8271C120.464 52.9392 106.429 42.6425 80.7557 38.6497C78.0214 38.2189 76.1853 35.6804 76.6455 32.9876C77.0744 30.253 79.6113 28.4183 82.3039 28.8803C94.9946 30.8557 106.756 34.6361 115.344 39.4885C117.984 41.0988 120.394 42.7506 122.46 44.4647ZM74.9482 80.5043C76.7429 82.0303 85.5098 82.5089 99.0278 76.8855C105.051 74.3967 110.343 71.2808 114.144 68.1738C109.771 67.209 105.492 66.6305 101.568 66.4386C87.457 65.7875 78.4382 69.4112 75.7545 73.3126C74.021 75.7849 73.9467 79.4281 74.8231 80.3372C74.8439 80.452 74.9169 80.4625 74.9482 80.5043ZM124.419 142.468C122.405 139.345 119.985 136.722 117.794 134.58C111.2 128.3 102.393 123.155 93.6371 120.515C75.1969 114.953 55.7824 119.579 47.8589 124.665C45.2281 126.375 44.5284 127.616 44.4761 127.981C44.5074 128.023 45.3094 132.576 62.768 139.786C81.1449 147.352 105.358 148.264 124.419 142.468Z" fill="url(#paint1_linear)"/>
<defs>
<linearGradient id="paint0_linear" x1="232.697" y1="263.651" x2="-12.2182" y2="-81.7024" gradientUnits="userSpaceOnUse">
<stop stop-color="#17165D"/>
<stop offset="1" stop-color="#37358B"/>
</linearGradient>
<linearGradient id="paint1_linear" x1="115.632" y1="180.637" x2="76.0621" y2="23.7019" gradientUnits="userSpaceOnUse">
<stop stop-color="#FFDE17"/>
<stop offset="0.12782" stop-color="#FF006A"/>
<stop offset="0.4384" stop-color="#FF913F"/>
<stop offset="0.5936" stop-color="#FF7FCA"/>
<stop offset="0.7815" stop-color="#527EE9"/>
<stop offset="1" stop-color="#00AEEF"/>
</linearGradient>
</defs>
</svg>
