<svg width="205" height="205" viewBox="0 0 205 205" fill="none" xmlns="http://www.w3.org/2000/svg">
<path d="M147.714 63.6211C147.714 63.994 148.068 63.994 148.124 63.994C148.18 63.994 148.534 63.9754 148.534 63.6211C148.534 63.0989 148.553 62.5395 148.572 62.0174C148.646 59.0897 148.739 56.0687 146.52 53.9615C144.768 52.2833 141.989 51.8171 139.733 52.824C137.458 53.831 136.022 56.0501 135.966 58.5862C135.966 58.6981 136.003 58.7913 136.078 58.8659C136.152 58.9218 136.246 58.9591 136.339 58.9591C136.376 58.9591 136.768 58.9591 136.768 58.5675C136.824 56.1806 138.297 54.148 140.535 53.3648C141.057 53.1783 141.616 53.0851 142.194 53.0851C144.022 53.0851 145.793 54.0361 146.837 55.5652C147.733 56.8892 147.733 58.3811 147.733 59.8169L147.714 63.6211Z" fill="#00FFD1"/>
<path d="M148.403 66.3623C148.552 66.3623 148.645 66.325 148.72 66.2131C148.795 66.0826 148.795 65.8961 148.72 65.7469C148.645 65.5977 148.496 65.5605 148.384 65.5418C147.769 65.5232 147.303 65.3367 146.986 64.9824C146.389 64.3297 146.445 63.2481 146.501 62.2971C146.52 62.0547 146.52 61.8123 146.52 61.5698C146.52 61.1969 146.538 60.8239 146.557 60.4137C146.613 59.1083 146.669 57.6165 146.128 56.5163C145.494 55.2483 144.431 54.4278 143.126 54.1854C141.746 53.9429 140.347 54.3718 139.266 55.3788C138.427 56.162 137.923 57.3182 137.867 58.6235C137.83 59.6118 137.326 60.6748 136.077 60.7493C135.797 60.768 135.667 61.0104 135.685 61.2155C135.685 61.3088 135.723 61.402 135.779 61.458C135.835 61.5326 135.928 61.5512 136.058 61.5512C137.103 61.4953 137.886 61.0104 138.315 60.134C138.538 59.6678 138.594 59.1829 138.65 58.6795C138.669 58.4184 138.706 58.1573 138.762 57.8776C139.079 56.2366 140.702 54.894 142.399 54.894C142.585 54.894 142.771 54.9126 142.939 54.9499C144.524 55.2296 145.736 56.7214 145.736 58.3811C145.736 60.0967 145.736 61.7936 145.736 63.5092C145.699 65.2994 146.669 66.3064 148.403 66.3623Z" fill="#00FFD1"/>
<path d="M136.6 67.5747C138.651 67.556 142.306 67.0152 143.854 63.6027C144.581 62.0177 144.618 60.3953 144.6 58.5865C144.6 57.766 144.32 57.076 143.854 56.6285C143.425 56.2369 142.847 56.0504 142.176 56.0877C140.833 56.1623 140.05 57.4676 139.751 58.6797C139.658 59.034 139.621 59.407 139.584 59.7613C139.472 60.7496 139.36 61.7566 138.334 62.4652C137.756 62.8568 136.992 63.0619 136.264 63.006C136.134 62.9873 136.041 63.0246 135.985 63.1179C135.891 63.2298 135.891 63.4162 135.966 63.5841C136.022 63.6773 136.115 63.8078 136.32 63.8265C137.831 63.957 139.341 63.0806 140.012 61.7193C140.367 60.9734 140.441 59.9851 140.479 59.724C140.497 59.4629 140.479 59.4816 140.553 59.034C140.591 58.7729 140.628 58.5678 140.684 58.3813C141.001 57.4303 141.821 56.9455 142.474 56.9455C142.53 56.9455 142.586 56.9455 142.642 56.9641C143.294 57.0574 143.723 57.5981 143.779 58.4373C143.891 60.1342 143.742 61.5142 143.332 62.7449C142.828 64.2367 141.281 66.7355 136.6 66.7728C136.488 66.7728 136.358 66.8101 136.283 66.9593C136.208 67.0898 136.208 67.295 136.283 67.4255C136.339 67.5187 136.451 67.5747 136.6 67.5747Z" fill="#00FFD1"/>
<path d="M136.188 64.9819C135.816 64.9819 135.797 65.3549 135.797 65.3922C135.797 65.4481 135.816 65.7838 136.17 65.7838C137.811 65.7651 140.739 65.3176 142.063 62.5577C142.585 61.4575 142.827 60.1708 142.715 59.0333C142.697 58.8282 142.566 58.7163 142.473 58.679C142.398 58.6417 142.324 58.623 142.249 58.623C142.156 58.623 142.081 58.6417 142.007 58.6976C141.969 58.7163 141.876 58.7909 141.895 58.9774C141.988 59.8724 141.839 60.8608 141.484 61.8491C140.794 63.7885 138.855 64.9446 136.188 64.9819Z" fill="#00FFD1"/>
<path d="M147.695 68.5817C147.825 68.5817 147.919 68.5257 147.993 68.4325C148.049 68.3579 148.086 68.2274 148.086 68.1155C148.086 68.0036 148.031 67.8917 147.975 67.8358C147.919 67.7798 147.825 67.7612 147.732 67.7612C146.688 67.7985 146.203 67.0898 145.774 66.4558C145.532 66.0829 145.271 65.7099 144.916 65.5048C144.152 65.0572 143.257 66.0269 142.679 66.6609C142.623 66.7355 142.567 66.7915 142.511 66.8288C141.15 68.2833 138.93 68.6563 137.439 68.5444C137.42 68.5444 137.42 68.5444 137.401 68.5444C137.289 68.5444 137.215 68.5817 137.159 68.6563C137.084 68.7681 137.066 68.9733 137.14 69.1224C137.196 69.2157 137.289 69.3462 137.495 69.3649C138.986 69.4768 140.609 69.0852 141.97 68.3019C142.399 68.0409 142.828 67.7052 143.275 67.2204C143.518 66.9593 143.723 66.7355 143.965 66.5118C144.077 66.3999 144.282 66.2507 144.506 66.288C144.749 66.3253 144.86 66.5304 144.972 66.6982C145.01 66.7542 145.028 66.8101 145.066 66.8474C145.811 68.0595 146.707 68.6376 147.695 68.5817Z" fill="#00FFD1"/>
<path d="M142.622 71.7519C143.648 71.6586 144.506 71.3976 145.177 70.9873C145.289 70.9127 145.345 70.8195 145.363 70.7076C145.382 70.5957 145.345 70.4838 145.289 70.3906C145.214 70.2787 145.102 70.2041 144.99 70.2041C144.935 70.2041 144.86 70.2227 144.785 70.2787C144.301 70.5771 143.797 70.7262 143.368 70.8381C143.088 70.8941 142.883 70.9314 142.678 70.95C142.473 70.9687 142.38 71.0992 142.324 71.1924C142.249 71.3416 142.268 71.5281 142.342 71.64C142.398 71.7332 142.492 71.7705 142.622 71.7519Z" fill="#00FFD1"/>
<path d="M139.154 70.8192C140.627 71.3413 142.38 70.2224 143.07 69.7376C143.163 69.663 143.257 69.5884 143.35 69.5138C143.779 69.1595 144.357 68.656 144.972 69.1968C145.401 69.5698 145.849 69.9054 146.315 69.9987C146.595 70.0546 146.781 69.8495 146.818 69.6444C146.837 69.5325 146.856 69.2901 146.557 69.2341C146.072 69.1409 145.718 68.8612 145.364 68.5814C144.86 68.1898 144.506 67.9101 143.853 68.2271C143.499 68.395 143.126 68.6747 142.716 68.9544C141.727 69.663 140.59 70.4835 139.303 70.036C139.247 70.0173 139.21 70.0173 139.173 70.0173C138.986 70.0173 138.893 70.2038 138.874 70.2597C138.837 70.4649 138.874 70.7259 139.154 70.8192Z" fill="#00FFD1"/>
<rect width="205" height="205" rx="48" fill="url(#paint0_linear)"/>
<g filter="url(#filter0_d)">
<path d="M145.731 114.171C145.731 117.258 148.664 117.258 149.127 117.258C149.59 117.258 152.522 117.103 152.522 114.171C152.522 109.849 152.676 105.219 152.831 100.897C153.448 76.6653 154.22 51.6615 135.853 34.2206C121.345 20.3296 98.3473 16.471 79.6717 24.8056C60.8417 33.1402 48.9572 51.5072 48.4941 72.498C48.4941 73.424 48.8028 74.1958 49.4202 74.8131C50.0376 75.2762 50.8093 75.5849 51.581 75.5849C51.8897 75.5849 55.1309 75.5849 55.1309 72.3436C55.594 52.5876 67.7872 35.7641 86.3085 29.2816C90.6301 27.7382 95.2604 26.9664 100.045 26.9664C115.171 26.9664 129.834 34.838 138.477 47.4942C145.885 58.4527 145.885 70.8002 145.885 82.6847L145.731 114.171Z" fill="white"/>
<path d="M151.443 136.859C152.678 136.859 153.45 136.551 154.067 135.624C154.684 134.544 154.684 133.001 154.067 131.766C153.45 130.531 152.215 130.222 151.289 130.068C146.196 129.914 142.337 128.37 139.713 125.438C134.774 120.036 135.237 111.084 135.7 103.212C135.854 101.206 135.854 99.1992 135.854 97.1928C135.854 94.1059 136.009 91.019 136.163 87.6234C136.626 76.8193 137.089 64.4718 132.613 55.3655C127.366 44.8701 118.568 38.0789 107.764 36.0725C96.3424 34.066 84.7665 37.6159 75.8146 45.9505C68.8691 52.4329 64.7018 62.0023 64.2388 72.8064C63.9301 80.9866 59.7628 89.7842 49.4217 90.4016C47.1066 90.556 46.0261 92.5624 46.1805 94.2602C46.1805 95.0319 46.4892 95.8037 46.9522 96.2667C47.4152 96.8841 48.187 97.0384 49.2674 97.0384C57.9106 96.5754 64.3931 92.5624 67.943 85.3083C69.7952 81.4497 70.2582 77.4367 70.7212 73.2694C70.8756 71.1086 71.1842 68.9478 71.6473 66.6326C74.2711 53.0503 87.6991 41.9375 101.744 41.9375C103.288 41.9375 104.831 42.0919 106.22 42.4006C119.34 44.7157 129.372 57.0633 129.372 70.7999C129.372 84.9996 129.372 99.0449 129.372 113.245C129.063 128.062 137.089 136.396 151.443 136.859Z" fill="white"/>
<path d="M53.7429 146.892C70.7207 146.738 100.972 142.262 113.783 114.017C119.802 100.897 120.111 87.4695 119.957 72.4981C119.957 65.707 117.641 59.9963 113.783 56.292C110.233 53.0508 105.448 51.5073 99.8918 51.816C88.779 52.4334 82.2965 63.2375 79.827 73.2699C79.0553 76.2024 78.7466 79.2893 78.4379 82.2218C77.5119 90.4021 76.5858 98.7367 68.0969 104.602C63.3122 107.843 56.9841 109.541 50.9647 109.078C49.8843 108.923 49.1125 109.232 48.6495 110.004C47.8778 110.93 47.8778 112.473 48.4952 113.862C48.9582 114.634 49.7299 115.715 51.4277 115.869C63.9296 116.949 76.4315 109.695 81.9879 98.428C84.9204 92.2542 85.5378 84.074 85.8465 81.9131C86.0008 79.7523 85.8465 79.9067 86.4638 76.2024C86.7725 74.0416 87.0812 72.3438 87.5442 70.8004C90.1681 62.9288 96.9592 58.9159 102.361 58.9159C102.824 58.9159 103.287 58.9159 103.75 59.0702C109.152 59.8419 112.702 64.3179 113.165 71.2634C114.091 85.3087 112.857 96.7302 109.461 106.917C105.294 119.264 92.4833 139.947 53.7429 140.255C52.8168 140.255 51.7364 140.564 51.119 141.799C50.5016 142.879 50.5016 144.577 51.119 145.657C51.582 146.429 52.5081 146.892 53.7429 146.892Z" fill="white"/>
<path d="M50.3477 125.438C47.2608 125.438 47.1064 128.525 47.1064 128.834C47.1064 129.297 47.2608 132.075 50.1933 132.075C63.7756 131.92 88.0077 128.216 98.9661 105.373C103.288 96.267 105.294 85.6172 104.368 76.2022C104.214 74.5044 103.133 73.5784 102.362 73.2697C101.744 72.961 101.127 72.8066 100.51 72.8066C99.7378 72.8066 99.1204 72.961 98.5031 73.424C98.1944 73.5784 97.4227 74.1957 97.577 75.7392C98.3487 83.1477 97.114 91.3279 94.1814 99.5082C88.4707 115.56 72.4189 125.129 50.3477 125.438Z" fill="white"/>
<path d="M145.579 155.226C146.659 155.226 147.431 154.763 148.049 153.991C148.512 153.374 148.82 152.294 148.82 151.368C148.82 150.442 148.357 149.515 147.894 149.052C147.431 148.589 146.659 148.435 145.888 148.435C137.244 148.744 133.231 142.879 129.682 137.631C127.675 134.544 125.514 131.457 122.582 129.759C116.254 126.055 108.845 134.081 104.06 139.329C103.597 139.946 103.134 140.409 102.671 140.718C91.4042 152.757 73.0372 155.844 60.6897 154.918C60.5353 154.918 60.5353 154.918 60.381 154.918C59.4549 154.918 58.8375 155.226 58.3745 155.844C57.7571 156.77 57.6028 158.467 58.2202 159.702C58.6832 160.474 59.4549 161.554 61.1527 161.709C73.5002 162.635 86.9282 159.393 98.1953 152.911C101.745 150.75 105.295 147.972 108.999 143.959C111.006 141.798 112.704 139.946 114.71 138.094C115.636 137.168 117.334 135.933 119.186 136.242C121.193 136.551 122.119 138.248 123.045 139.637C123.353 140.1 123.508 140.563 123.816 140.872C129.99 150.905 137.399 155.689 145.579 155.226Z" fill="white"/>
<path d="M103.593 181.465C112.082 180.693 119.182 178.532 124.738 175.137C125.664 174.519 126.127 173.748 126.282 172.822C126.436 171.896 126.127 170.969 125.664 170.198C125.047 169.272 124.121 168.654 123.195 168.654C122.732 168.654 122.114 168.809 121.497 169.272C117.484 171.741 113.317 172.976 109.767 173.902C107.452 174.365 105.754 174.674 104.056 174.828C102.358 174.982 101.587 176.063 101.123 176.835C100.506 178.069 100.66 179.613 101.278 180.539C101.741 181.311 102.513 181.619 103.593 181.465Z" fill="white"/>
<path d="M74.8898 173.747C87.083 178.069 101.591 168.808 107.302 164.795C108.074 164.178 108.846 163.561 109.617 162.943C113.167 160.011 117.952 155.844 123.045 160.32C126.595 163.406 130.299 166.185 134.158 166.956C136.473 167.419 138.017 165.722 138.325 164.024C138.48 163.098 138.634 161.091 136.164 160.628C132.152 159.856 129.219 157.541 126.286 155.226C122.119 151.985 119.187 149.67 113.785 152.294C110.852 153.683 107.765 155.998 104.37 158.313C96.1893 164.178 86.7743 170.969 76.1246 167.265C75.6615 167.111 75.3529 167.111 75.0442 167.111C73.5007 167.111 72.729 168.654 72.5747 169.117C72.266 170.815 72.5747 172.976 74.8898 173.747Z" fill="white"/>
</g>
<rect y="65" width="205" height="82" fill="url(#paint1_linear)"/>
<defs>
<filter id="filter0_d" x="38.166" y="20.4424" width="124.364" height="177.061" filterUnits="userSpaceOnUse" color-interpolation-filters="sRGB">
<feFlood flood-opacity="0" result="BackgroundImageFix"/>
<feColorMatrix in="SourceAlpha" type="matrix" values="0 0 0 0 0 0 0 0 0 0 0 0 0 0 0 0 0 0 127 0"/>
<feOffset dy="8"/>
<feGaussianBlur stdDeviation="4"/>
<feColorMatrix type="matrix" values="0 0 0 0 0.166562 0 0 0 0 0.190938 0 0 0 0 0.325 0 0 0 1 0"/>
<feBlend mode="normal" in2="BackgroundImageFix" result="effect1_dropShadow"/>
<feBlend mode="normal" in="SourceGraphic" in2="effect1_dropShadow" result="shape"/>
</filter>
<linearGradient id="paint0_linear" x1="125.463" y1="-42.2381" x2="6.1809" y2="163.055" gradientUnits="userSpaceOnUse">
<stop stop-color="#292929"/>
<stop offset="1" stop-color="#364563"/>
</linearGradient>
<linearGradient id="paint1_linear" x1="102.5" y1="65" x2="102.5" y2="147" gradientUnits="userSpaceOnUse">
<stop stop-color="#FF0000"/>
<stop offset="0.0416667" stop-color="#FF0000" stop-opacity="0.834395"/>
<stop offset="0.0417667" stop-color="#FF0000" stop-opacity="0.4"/>
<stop offset="0.880208" stop-color="#FF0000" stop-opacity="0"/>
</linearGradient>
</defs>
</svg>
