<svg width="205" height="205" viewBox="0 0 205 205" fill="none" xmlns="http://www.w3.org/2000/svg">
<rect width="205" height="205" rx="48" fill="url(#paint0_linear)"/>
<path d="M174 102.515C174 109.511 161.297 114.344 159.201 120.641C157.105 126.937 164.473 138.576 160.535 143.982C156.597 149.388 143.387 145.953 137.924 149.96C132.462 153.967 131.573 167.514 125.222 169.676C118.87 171.839 110.487 161.217 103.5 161.217C96.5136 161.217 88.0029 171.775 81.7149 169.739C75.4273 167.704 74.4744 153.967 69.0123 150.023C63.5501 146.08 50.4662 149.514 46.3379 144.045C42.2095 138.575 49.7677 127.191 47.6717 120.704C45.5757 114.217 33 109.51 33 102.514C33 95.5183 45.7027 90.6848 47.7987 84.3883C49.8947 78.0917 42.5271 66.4531 46.3379 60.9835C50.1486 55.5139 63.4865 59.0118 68.9486 55.005C74.4108 50.9982 75.3 37.4516 81.6513 35.289C88.0026 33.1264 96.5133 43.8112 103.5 43.8112C110.486 43.8112 118.997 33.2536 125.285 35.289C131.573 37.3244 132.526 51.0616 137.988 55.005C143.45 58.9481 156.597 55.5139 160.598 60.9835C164.6 66.4531 157.169 77.8374 159.265 84.3245C161.361 90.8123 174 95.5186 174 102.515Z" fill="url(#paint1_linear)"/>
<path d="M95.1381 129.039C93.4525 129.039 91.8373 128.377 90.6415 127.175L73.6599 110.194C71.1732 107.707 71.1732 103.687 73.6599 101.2C76.1466 98.7136 80.1665 98.7136 82.6532 101.2L94.7184 113.259L123.072 79.3532C125.324 76.6693 129.324 76.2939 132.033 78.5581C134.73 80.8097 135.08 84.823 132.835 87.5195L100.016 126.762C98.8717 128.129 97.2054 128.956 95.418 129.032C95.329 129.039 95.2334 129.039 95.1381 129.039Z" fill="#FF7443"/>
<defs>
<linearGradient id="paint0_linear" x1="3.39191e-07" y1="193.392" x2="203.766" y2="28.2098" gradientUnits="userSpaceOnUse">
<stop stop-color="#FFDD55"/>
<stop offset="0.5" stop-color="#FF543E"/>
<stop offset="1" stop-color="#C837AB"/>
</linearGradient>
<linearGradient id="paint1_linear" x1="153" y1="66" x2="26" y2="124" gradientUnits="userSpaceOnUse">
<stop stop-color="white"/>
<stop offset="1" stop-color="white" stop-opacity="0.78"/>
</linearGradient>
</defs>
</svg>
