<svg width="205" height="206" viewBox="0 0 205 206" fill="none" xmlns="http://www.w3.org/2000/svg">
<rect y="0.359863" width="205" height="205" rx="48" fill="url(#paint0_linear)"/>
<path d="M162.422 91.085C162.781 109.438 154.891 126.022 142.138 137.315C122.868 155.064 98.6936 167.613 71.8741 173.479C69.1474 174.071 66.8951 171.377 67.9669 168.797C70.1096 163.593 75.4789 155.812 76.7788 148.828C76.858 148.288 76.8026 147.75 76.5695 147.306C76.4305 147.084 76.2923 146.907 76.1551 146.775C76.0627 146.643 75.9712 146.555 75.834 146.423C75.6518 146.291 75.5146 146.159 75.4239 146.116C56.0665 136.44 42.6152 116.592 42.1632 93.4822C41.5137 60.2761 67.9109 32.8256 101.117 32.1761C134.323 31.5266 161.773 57.8789 162.422 91.085Z" fill="url(#paint1_linear)"/>
<g filter="url(#filter0_d)">
<path d="M78.8552 102.549C82.6412 102.549 85.7104 99.4796 85.7104 95.6936C85.7104 91.9076 82.6412 88.8384 78.8552 88.8384C75.0692 88.8384 72 91.9076 72 95.6936C72 99.4796 75.0692 102.549 78.8552 102.549Z" fill="#4987FF"/>
<path d="M102.656 102.549C106.442 102.549 109.511 99.4796 109.511 95.6936C109.511 91.9076 106.442 88.8384 102.656 88.8384C98.8699 88.8384 95.8008 91.9076 95.8008 95.6936C95.8008 99.4796 98.8699 102.549 102.656 102.549Z" fill="#4987FF"/>
<path d="M126.497 102.549C130.283 102.549 133.352 99.4796 133.352 95.6936C133.352 91.9076 130.283 88.8384 126.497 88.8384C122.711 88.8384 119.642 91.9076 119.642 95.6936C119.642 99.4796 122.711 102.549 126.497 102.549Z" fill="#4987FF"/>
</g>
<defs>
<filter id="filter0_d" x="63" y="88.8384" width="77.352" height="29.7104" filterUnits="userSpaceOnUse" color-interpolation-filters="sRGB">
<feFlood flood-opacity="0" result="BackgroundImageFix"/>
<feColorMatrix in="SourceAlpha" type="matrix" values="0 0 0 0 0 0 0 0 0 0 0 0 0 0 0 0 0 0 127 0"/>
<feOffset dx="-1" dy="8"/>
<feGaussianBlur stdDeviation="4"/>
<feColorMatrix type="matrix" values="0 0 0 0 0.156863 0 0 0 0 0.337255 0 0 0 0 0.690196 0 0 0 0.2 0"/>
<feBlend mode="normal" in2="BackgroundImageFix" result="effect1_dropShadow"/>
<feBlend mode="normal" in="SourceGraphic" in2="effect1_dropShadow" result="shape"/>
</filter>
<linearGradient id="paint0_linear" x1="205.143" y1="224.294" x2="0.252013" y2="-37.826" gradientUnits="userSpaceOnUse">
<stop stop-color="#206CFF"/>
<stop offset="1" stop-color="#76A4FF"/>
</linearGradient>
<linearGradient id="paint1_linear" x1="145.471" y1="164.674" x2="-167.438" y2="186.563" gradientUnits="userSpaceOnUse">
<stop stop-color="white"/>
<stop offset="1" stop-color="white" stop-opacity="0"/>
</linearGradient>
</defs>
</svg>
