<svg width="205" height="205" viewBox="0 0 205 205" fill="none" xmlns="http://www.w3.org/2000/svg">
<rect width="205" height="205" rx="48" fill="#1842DA"/>
<rect width="205" height="205" rx="48" fill="#6D18DA"/>
<rect width="205" height="205" rx="48" fill="url(#paint0_linear)" fill-opacity="0.6"/>
<path opacity="0.900536" fill-rule="evenodd" clip-rule="evenodd" d="M60.9189 168.986C39.3273 168.409 22 150.609 22 128.735C22 106.498 39.9086 88.4706 62 88.4706C62.8326 88.4706 63.6593 88.4962 64.4793 88.5467C71.711 70.6318 89.1738 58 109.568 58C136.435 58 158.216 79.9249 158.216 106.971C158.216 108.229 158.169 109.477 158.076 110.712C171.684 113.208 182 125.2 182 139.618C182 155.481 169.512 168.408 153.892 168.98V169H60.9189V168.986Z" fill="url(#paint1_linear)"/>
<path d="M89.0888 152.616C98.2219 152.616 105.626 145.199 105.626 136.048C105.626 126.898 98.2219 119.48 89.0888 119.48C79.9556 119.48 72.5518 126.898 72.5518 136.048C72.5518 145.199 79.9556 152.616 89.0888 152.616Z" stroke="white" stroke-width="10" stroke-miterlimit="10" stroke-linecap="round" stroke-linejoin="round"/>
<path d="M105.644 136.049V60.9855C105.644 56.3096 108.776 52.226 113.296 51.0103L154.506 39.9752C161.053 38.214 167.49 43.1548 167.49 49.9504V119.496" stroke="white" stroke-width="10" stroke-miterlimit="10" stroke-linecap="round" stroke-linejoin="round"/>
<path d="M150.934 136.064C160.067 136.064 167.471 128.646 167.471 119.496C167.471 110.346 160.067 102.928 150.934 102.928C141.8 102.928 134.396 110.346 134.396 119.496C134.396 128.646 141.8 136.064 150.934 136.064Z" stroke="white" stroke-width="10" stroke-miterlimit="10" stroke-linecap="round" stroke-linejoin="round"/>
<circle cx="88.0518" cy="135.116" r="14.5" fill="white"/>
<circle cx="151.052" cy="121.116" r="14.5" fill="white"/>
<defs>
<linearGradient id="paint0_linear" x1="102.5" y1="209.171" x2="9.15138" y2="-0.068873" gradientUnits="userSpaceOnUse">
<stop stop-color="#5511E5"/>
<stop offset="0.959329" stop-color="#F8294E"/>
</linearGradient>
<linearGradient id="paint1_linear" x1="11.6318" y1="173.636" x2="236.73" y2="3.87789" gradientUnits="userSpaceOnUse">
<stop stop-color="white"/>
<stop offset="0.828125" stop-color="#FA00FF" stop-opacity="0"/>
</linearGradient>
</defs>
</svg>
