<svg width="205" height="206" viewBox="0 0 205 206" fill="none" xmlns="http://www.w3.org/2000/svg">
<rect y="0.616211" width="205" height="205" rx="48" fill="url(#paint0_linear)"/>
<rect y="0.616211" width="205" height="205" rx="48" fill="url(#paint1_linear)"/>
<path d="M113.455 157.81H50.8151C44.4533 157.81 39.8043 151.938 41.2724 145.82L66.2303 36.2015C67.2091 31.7971 71.124 28.6162 75.773 28.6162H138.412C144.774 28.6162 149.423 34.4887 147.955 40.6058L122.997 150.225C122.019 154.629 118.104 157.81 113.455 157.81Z" fill="url(#paint2_linear)" fill-opacity="0.8"/>
<path d="M128.011 178.364H65.3718C59.01 178.364 54.3609 172.491 55.8291 166.374L80.5423 56.7552C81.521 52.3508 85.436 49.1699 90.085 49.1699H152.724C159.086 49.1699 163.735 55.0424 162.267 61.1595L137.554 170.779C136.575 175.183 132.416 178.364 128.011 178.364Z" fill="url(#paint3_linear)"/>
<defs>
<linearGradient id="paint0_linear" x1="-21.4702" y1="-27.5863" x2="65.8238" y2="308.229" gradientUnits="userSpaceOnUse">
<stop stop-color="#43D48E"/>
<stop offset="1" stop-color="#20B86F"/>
</linearGradient>
<linearGradient id="paint1_linear" x1="-21.4702" y1="-27.5863" x2="65.8238" y2="308.229" gradientUnits="userSpaceOnUse">
<stop stop-color="#43D48E"/>
<stop offset="1" stop-color="#10BC6A"/>
</linearGradient>
<linearGradient id="paint2_linear" x1="94.6138" y1="28.6162" x2="54.8142" y2="174.039" gradientUnits="userSpaceOnUse">
<stop stop-color="white"/>
<stop offset="1" stop-color="white" stop-opacity="0.34"/>
</linearGradient>
<linearGradient id="paint3_linear" x1="109.048" y1="49.1699" x2="77.6227" y2="199.907" gradientUnits="userSpaceOnUse">
<stop stop-color="white"/>
<stop offset="1" stop-color="white" stop-opacity="0.4"/>
</linearGradient>
</defs>
</svg>
