<svg width="205" height="206" viewBox="0 0 205 206" fill="none" xmlns="http://www.w3.org/2000/svg">
<rect y="0.616211" width="205" height="205" rx="48" fill="url(#paint0_linear)"/>
<g filter="url(#filter0_d)">
<path d="M153.784 52.2005C154.948 40.4419 146.359 29.9661 134.601 28.8022C122.842 27.6383 112.366 36.2269 111.202 47.9855C110.038 59.7441 118.627 70.2199 130.386 71.3838C142.144 72.5478 152.62 63.9591 153.784 52.2005Z" fill="white"/>
<path d="M71.6574 71.4857C83.4739 71.4857 93.0531 61.9065 93.0531 50.09C93.0531 38.2735 83.4739 28.6943 71.6574 28.6943C59.8409 28.6943 50.2617 38.2735 50.2617 50.09C50.2617 61.9065 59.8409 71.4857 71.6574 71.4857Z" fill="white"/>
<path d="M100.468 80.3662C112.285 80.3662 121.863 89.9448 121.863 101.762C121.863 113.579 112.285 123.158 100.468 123.158" fill="white"/>
<path d="M71.6574 176.442C83.4739 176.442 93.0531 166.863 93.0531 155.046C93.0531 143.23 83.4739 133.65 71.6574 133.65C59.8409 133.65 50.2617 143.23 50.2617 155.046C50.2617 166.863 59.8409 176.442 71.6574 176.442Z" fill="white"/>
<path d="M42.4816 123.158C54.2981 123.158 63.8773 113.578 63.8773 101.762C63.8773 89.9454 54.2981 80.3662 42.4816 80.3662C30.6651 80.3662 21.0859 89.9454 21.0859 101.762C21.0859 113.578 30.6651 123.158 42.4816 123.158Z" fill="white"/>
<path d="M162.373 123.158C174.19 123.158 183.769 113.578 183.769 101.762C183.769 89.9454 174.19 80.3662 162.373 80.3662C150.557 80.3662 140.978 89.9454 140.978 101.762C140.978 113.578 150.557 123.158 162.373 123.158Z" fill="white"/>
<path d="M132.501 174.828C144.318 174.828 153.897 165.249 153.897 153.433C153.897 141.616 144.318 132.037 132.501 132.037C120.685 132.037 111.105 141.616 111.105 153.433C111.105 165.249 120.685 174.828 132.501 174.828Z" fill="white"/>
<path d="M111.585 120.475C108.98 121.753 99.8452 126.623 95.3068 137.538C92.4341 144.441 92.6866 150.664 93.053 153.866L59.0859 137.763C76.636 128.93 85.9006 110.705 82.3413 94.3283C78.7974 78.0252 63.9999 70.2601 61.7369 69.1147L93.0561 50.0898C92.6927 53.292 92.4403 59.5145 95.3099 66.4175C99.8513 77.3324 108.984 82.2034 111.588 83.4811" fill="white"/>
</g>
<defs>
<filter id="filter0_d" x="2.08594" y="17.6943" width="200.683" height="185.747" filterUnits="userSpaceOnUse" color-interpolation-filters="sRGB">
<feFlood flood-opacity="0" result="BackgroundImageFix"/>
<feColorMatrix in="SourceAlpha" type="matrix" values="0 0 0 0 0 0 0 0 0 0 0 0 0 0 0 0 0 0 127 0"/>
<feOffset dy="8"/>
<feGaussianBlur stdDeviation="9.5"/>
<feColorMatrix type="matrix" values="0 0 0 0 0.796058 0 0 0 0 0.288651 0 0 0 0 0.128417 0 0 0 0.14 0"/>
<feBlend mode="normal" in2="BackgroundImageFix" result="effect1_dropShadow"/>
<feBlend mode="normal" in="SourceGraphic" in2="effect1_dropShadow" result="shape"/>
</filter>
<linearGradient id="paint0_linear" x1="78.2824" y1="-53.1976" x2="118.875" y2="335.252" gradientUnits="userSpaceOnUse">
<stop stop-color="#FE9A04"/>
<stop offset="1" stop-color="#F74C4C"/>
<stop offset="1" stop-color="#F8601B"/>
</linearGradient>
</defs>
</svg>
