<?xml version="1.0" encoding="utf-8"?>
<!-- Generator: Adobe Illustrator 25.2.3, SVG Export Plug-In . SVG Version: 6.00 Build 0)  -->
<svg version="1.1" id="Слой_1" xmlns="http://www.w3.org/2000/svg" xmlns:xlink="http://www.w3.org/1999/xlink" x="0px" y="0px"
	 viewBox="0 0 240 240" style="enable-background:new 0 0 240 240;" xml:space="preserve">
<style type="text/css">
	.st0{fill:url(#SVGID_1_);}
	.st1{fill:#FFFFFF;}
	.st2{fill-rule:evenodd;clip-rule:evenodd;fill:#FFFFFF;}
</style>
<linearGradient id="SVGID_1_" gradientUnits="userSpaceOnUse" x1="97.4169" y1="305.7107" x2="137.6193" y2="-21.3308" gradientTransform="matrix(1 0 0 -1 0 242)">
	<stop  offset="0" style="stop-color:#F456CC"/>
	<stop  offset="1" style="stop-color:#D03DEF"/>
</linearGradient>
<path class="st0" d="M48,0h144c26.5,0,48,21.5,48,48v144c0,26.5-21.5,48-48,48H48c-26.5,0-48-21.5-48-48V48C0,21.5,21.5,0,48,0z"/>
<g>
	<path class="st1" d="M67.9,59l-0.1,59.2l53.1-30.5V28.9L67.9,59z"/>
	<path class="st1" d="M118.1,150v58.7l52.9-29.8v-59.3L118.1,150z"/>
	<path class="st2" d="M171,59L16.4,147.7l50.4,31.7l51.4-29.4l-50.3-31.8l53.1-30.5l50.2,31.9l52.4-30L171,59z"/>
</g>
</svg>
